<svg width="785" height="859" viewBox="0 0 785 859" fill="none" xmlns="http://www.w3.org/2000/svg">
<g clip-path="url(#clip0_884_660)">
<g filter="url(#filter0_f_884_660)">
<path d="M650.653 601.511C726.125 627.178 798.696 575.895 812.745 486.967C826.794 398.04 777.002 305.142 701.53 279.475C626.059 253.807 553.488 305.09 539.438 394.018C525.389 482.946 575.181 575.843 650.653 601.511Z" fill="#01808F"/>
</g>
<g filter="url(#filter1_f_884_660)">
<path d="M370.553 471.003C435.476 493.083 497.904 448.968 509.99 372.47C522.076 295.972 479.242 216.059 414.319 193.979C349.396 171.899 286.968 216.014 274.883 292.512C262.797 369.01 305.63 448.923 370.553 471.003Z" fill="#00A996"/>
</g>
</g>
<defs>
<filter id="filter0_f_884_660" x="287.066" y="22.8594" width="778.051" height="835.268" filterUnits="userSpaceOnUse" color-interpolation-filters="sRGB">
<feFlood flood-opacity="0" result="BackgroundImageFix"/>
<feBlend mode="normal" in="SourceGraphic" in2="BackgroundImageFix" result="shape"/>
<feGaussianBlur stdDeviation="125" result="effect1_foregroundBlur_884_660"/>
</filter>
<filter id="filter1_f_884_660" x="22.8418" y="-61.7129" width="739.189" height="788.408" filterUnits="userSpaceOnUse" color-interpolation-filters="sRGB">
<feFlood flood-opacity="0" result="BackgroundImageFix"/>
<feBlend mode="normal" in="SourceGraphic" in2="BackgroundImageFix" result="shape"/>
<feGaussianBlur stdDeviation="125" result="effect1_foregroundBlur_884_660"/>
</filter>
<clipPath id="clip0_884_660">
<rect width="785" height="859" fill="white"/>
</clipPath>
</defs>
</svg>
